<?xml version="1.0" standalone="no"?>
<!DOCTYPE svg PUBLIC "-//W3C//DTD SVG 20010904//EN"
 "http://www.w3.org/TR/2001/REC-SVG-20010904/DTD/svg10.dtd">
<svg version="1.0" xmlns="http://www.w3.org/2000/svg"
 width="260.000000pt" height="260.000000pt" viewBox="0 0 260.000000 260.000000"
 preserveAspectRatio="xMidYMid meet">
<metadata>
Created by potrace 1.14, written by Peter Selinger 2001-2017
</metadata>
<g transform="translate(0.000000,260.000000) scale(0.100000,-0.100000)"
fill="#000000" stroke="none">
<path d="M847 2372 c-38 -42 -10 -109 99 -235 41 -49 74 -91 71 -93 -6 -6
-156 -31 -237 -39 -36 -4 -73 -14 -82 -23 -27 -23 -23 -76 7 -100 14 -11 25
-22 25 -25 0 -3 -30 -19 -66 -36 -204 -95 -365 -294 -408 -503 -20 -96 -20
-167 -1 -288 37 -234 129 -429 272 -581 211 -224 494 -349 788 -349 225 0 428
66 618 201 192 137 312 295 400 530 60 160 83 382 52 504 -48 186 -203 382
-368 467 -24 12 -44 31 -52 52 -18 41 -30 51 -83 65 -45 13 -96 40 -149 79
l-33 24 23 41 c27 49 72 85 118 93 46 9 69 31 69 66 0 50 -30 68 -116 68 -95
0 -192 -38 -281 -110 -34 -27 -64 -50 -66 -50 -3 0 -7 43 -9 96 -3 86 -5 98
-27 115 -29 24 -53 24 -82 0 -20 -16 -24 -30 -29 -105 l-5 -87 -35 26 c-19 15
-82 51 -140 80 -58 30 -127 73 -154 95 -53 44 -93 51 -119 22z m251 -189 c110
-57 192 -121 192 -149 0 -17 5 -18 -58 6 -29 11 -65 20 -81 20 -23 0 -45 16
-105 78 -66 67 -126 139 -126 149 0 2 15 -7 33 -20 17 -14 83 -51 145 -84z
m672 30 c-1 -5 -18 -20 -38 -34 -21 -14 -51 -46 -68 -70 l-29 -45 -45 8 c-25
4 -50 6 -57 3 -7 -2 -15 0 -18 5 -12 20 145 114 220 133 32 7 35 7 35 0z
m-175 -227 c26 -8 84 -37 129 -64 44 -27 91 -53 104 -57 43 -13 21 -23 -65
-30 -155 -11 -373 29 -373 69 0 24 62 69 119 87 36 10 33 11 86 -5z m-368 -30
c51 -27 89 -64 78 -75 -15 -15 -106 -31 -175 -31 -112 0 -385 58 -366 78 3 3
72 15 153 28 160 25 263 25 310 0z m-220 -286 c112 -50 118 -196 13 -328 -79
-100 -244 -180 -352 -168 -114 12 -160 54 -166 152 -5 81 25 150 97 222 123
123 294 174 408 122z"/>
</g>
</svg>
